<mxfile host="app.diagrams.net" agent="Mozilla/5.0 (Macintosh; Intel Mac OS X 10_15_7) AppleWebKit/537.36 (KHTML, like Gecko) Chrome/131.0.0.0 Safari/537.36" version="25.0.3">
  <diagram name="Page-1" id="UP8CHZvik8uI4FmLmfDv">
    <mxGraphModel dx="1363" dy="1763" grid="1" gridSize="10" guides="1" tooltips="1" connect="1" arrows="1" fold="1" page="1" pageScale="1" pageWidth="1100" pageHeight="850" math="0" shadow="0">
      <root>
        <mxCell id="0" />
        <mxCell id="1" parent="0" />
        <mxCell id="SvwV8v0SUmPAa_3Y46IJ-15" value="User Enters Name, Email, Password&amp;nbsp;" style="rounded=0;whiteSpace=wrap;html=1;" vertex="1" parent="1">
          <mxGeometry x="130" y="210" width="110" height="60" as="geometry" />
        </mxCell>
        <mxCell id="SvwV8v0SUmPAa_3Y46IJ-16" value="Condition" style="rhombus;whiteSpace=wrap;html=1;fontColor=#000000;fillColor=#ffffc0;strokeColor=#ff0000;" vertex="1" parent="1">
          <mxGeometry x="150" y="390" width="80" height="40" as="geometry" />
        </mxCell>
        <mxCell id="SvwV8v0SUmPAa_3Y46IJ-17" value="no" style="edgeStyle=orthogonalEdgeStyle;html=1;align=left;verticalAlign=bottom;endArrow=open;endSize=8;strokeColor=#ff0000;rounded=0;" edge="1" source="SvwV8v0SUmPAa_3Y46IJ-16" parent="1">
          <mxGeometry x="-1" relative="1" as="geometry">
            <mxPoint x="270" y="410" as="targetPoint" />
          </mxGeometry>
        </mxCell>
        <mxCell id="SvwV8v0SUmPAa_3Y46IJ-18" value="yes" style="edgeStyle=orthogonalEdgeStyle;html=1;align=left;verticalAlign=top;endArrow=open;endSize=8;strokeColor=#ff0000;rounded=0;" edge="1" source="SvwV8v0SUmPAa_3Y46IJ-16" parent="1">
          <mxGeometry x="-1" relative="1" as="geometry">
            <mxPoint x="190" y="490" as="targetPoint" />
          </mxGeometry>
        </mxCell>
        <mxCell id="SvwV8v0SUmPAa_3Y46IJ-19" value="" style="ellipse;html=1;shape=startState;fillColor=#000000;strokeColor=#ff0000;" vertex="1" parent="1">
          <mxGeometry x="170" y="120" width="30" height="30" as="geometry" />
        </mxCell>
        <mxCell id="SvwV8v0SUmPAa_3Y46IJ-20" value="" style="edgeStyle=orthogonalEdgeStyle;html=1;verticalAlign=bottom;endArrow=open;endSize=8;strokeColor=#ff0000;rounded=0;" edge="1" source="SvwV8v0SUmPAa_3Y46IJ-19" parent="1">
          <mxGeometry relative="1" as="geometry">
            <mxPoint x="185" y="210" as="targetPoint" />
          </mxGeometry>
        </mxCell>
        <mxCell id="SvwV8v0SUmPAa_3Y46IJ-23" value="" style="shape=line;html=1;strokeWidth=6;strokeColor=#ff0000;" vertex="1" parent="1">
          <mxGeometry x="85" y="310" width="200" height="10" as="geometry" />
        </mxCell>
        <mxCell id="SvwV8v0SUmPAa_3Y46IJ-24" value="" style="edgeStyle=orthogonalEdgeStyle;html=1;verticalAlign=bottom;endArrow=open;endSize=8;strokeColor=#ff0000;rounded=0;" edge="1" source="SvwV8v0SUmPAa_3Y46IJ-23" parent="1">
          <mxGeometry relative="1" as="geometry">
            <mxPoint x="185" y="390" as="targetPoint" />
          </mxGeometry>
        </mxCell>
        <mxCell id="SvwV8v0SUmPAa_3Y46IJ-25" value="Display Error (Invalid Details)&amp;nbsp;" style="html=1;whiteSpace=wrap;" vertex="1" parent="1">
          <mxGeometry x="270" y="385" width="110" height="50" as="geometry" />
        </mxCell>
        <mxCell id="SvwV8v0SUmPAa_3Y46IJ-26" value="&lt;b&gt;&lt;font style=&quot;font-size: 20px;&quot;&gt;REGISTRATION ACTIVITY DIAGRAM&lt;/font&gt;&lt;/b&gt;" style="text;html=1;align=center;verticalAlign=middle;resizable=0;points=[];autosize=1;strokeColor=none;fillColor=none;" vertex="1" parent="1">
          <mxGeometry x="365" y="-20" width="370" height="40" as="geometry" />
        </mxCell>
        <mxCell id="SvwV8v0SUmPAa_3Y46IJ-27" value="User confirms" style="html=1;whiteSpace=wrap;" vertex="1" parent="1">
          <mxGeometry x="135" y="490" width="110" height="50" as="geometry" />
        </mxCell>
        <mxCell id="SvwV8v0SUmPAa_3Y46IJ-31" value="Valid and unique data?" style="rhombus;whiteSpace=wrap;html=1;fontColor=#000000;fillColor=#ffffc0;strokeColor=#ff0000;" vertex="1" parent="1">
          <mxGeometry x="150" y="550" width="80" height="40" as="geometry" />
        </mxCell>
        <mxCell id="SvwV8v0SUmPAa_3Y46IJ-32" value="no" style="edgeStyle=orthogonalEdgeStyle;html=1;align=left;verticalAlign=bottom;endArrow=open;endSize=8;strokeColor=#ff0000;rounded=0;" edge="1" source="SvwV8v0SUmPAa_3Y46IJ-31" parent="1">
          <mxGeometry x="-1" relative="1" as="geometry">
            <mxPoint x="280" y="570" as="targetPoint" />
          </mxGeometry>
        </mxCell>
        <mxCell id="SvwV8v0SUmPAa_3Y46IJ-33" value="yes" style="edgeStyle=orthogonalEdgeStyle;html=1;align=left;verticalAlign=top;endArrow=open;endSize=8;strokeColor=#ff0000;rounded=0;" edge="1" source="SvwV8v0SUmPAa_3Y46IJ-31" parent="1">
          <mxGeometry x="-1" relative="1" as="geometry">
            <mxPoint x="190" y="650" as="targetPoint" />
          </mxGeometry>
        </mxCell>
        <mxCell id="SvwV8v0SUmPAa_3Y46IJ-34" value="User Accepts Terms and Conditions&amp;nbsp;" style="html=1;whiteSpace=wrap;" vertex="1" parent="1">
          <mxGeometry x="140" y="650" width="110" height="50" as="geometry" />
        </mxCell>
        <mxCell id="SvwV8v0SUmPAa_3Y46IJ-36" value="Display Error&lt;div&gt;&lt;br&gt;&lt;/div&gt;" style="html=1;whiteSpace=wrap;" vertex="1" parent="1">
          <mxGeometry x="280" y="545" width="110" height="50" as="geometry" />
        </mxCell>
        <mxCell id="SvwV8v0SUmPAa_3Y46IJ-38" value="" style="endArrow=open;endFill=1;endSize=12;html=1;rounded=0;entryX=0;entryY=0.5;entryDx=0;entryDy=0;exitX=1;exitY=0.25;exitDx=0;exitDy=0;" edge="1" parent="1" source="SvwV8v0SUmPAa_3Y46IJ-34" target="SvwV8v0SUmPAa_3Y46IJ-39">
          <mxGeometry width="160" relative="1" as="geometry">
            <mxPoint x="255" y="574.29" as="sourcePoint" />
            <mxPoint x="520" y="574" as="targetPoint" />
            <Array as="points">
              <mxPoint x="560" y="560" />
              <mxPoint x="570" y="190" />
            </Array>
          </mxGeometry>
        </mxCell>
        <mxCell id="SvwV8v0SUmPAa_3Y46IJ-39" value="Save User Data to Database&amp;nbsp;" style="whiteSpace=wrap;html=1;" vertex="1" parent="1">
          <mxGeometry x="670" y="160" width="120" height="60" as="geometry" />
        </mxCell>
        <mxCell id="SvwV8v0SUmPAa_3Y46IJ-40" value="Send Confirmation Email&amp;nbsp;" style="whiteSpace=wrap;html=1;" vertex="1" parent="1">
          <mxGeometry x="670" y="430" width="120" height="60" as="geometry" />
        </mxCell>
        <mxCell id="SvwV8v0SUmPAa_3Y46IJ-41" value="" style="endArrow=open;endFill=1;endSize=12;html=1;rounded=0;entryX=0.5;entryY=0;entryDx=0;entryDy=0;exitX=0.5;exitY=1;exitDx=0;exitDy=0;" edge="1" parent="1" source="SvwV8v0SUmPAa_3Y46IJ-39" target="SvwV8v0SUmPAa_3Y46IJ-40">
          <mxGeometry width="160" relative="1" as="geometry">
            <mxPoint x="540" y="410" as="sourcePoint" />
            <mxPoint x="700" y="410" as="targetPoint" />
          </mxGeometry>
        </mxCell>
        <mxCell id="SvwV8v0SUmPAa_3Y46IJ-42" value="Registration Complete&amp;nbsp;" style="whiteSpace=wrap;html=1;" vertex="1" parent="1">
          <mxGeometry x="670" y="530" width="120" height="60" as="geometry" />
        </mxCell>
        <mxCell id="SvwV8v0SUmPAa_3Y46IJ-43" value="" style="endArrow=open;endFill=1;endSize=12;html=1;rounded=0;entryX=0.5;entryY=0;entryDx=0;entryDy=0;exitX=0.5;exitY=1;exitDx=0;exitDy=0;" edge="1" parent="1" source="SvwV8v0SUmPAa_3Y46IJ-40" target="SvwV8v0SUmPAa_3Y46IJ-42">
          <mxGeometry width="160" relative="1" as="geometry">
            <mxPoint x="740" y="230" as="sourcePoint" />
            <mxPoint x="740" y="440" as="targetPoint" />
          </mxGeometry>
        </mxCell>
        <mxCell id="SvwV8v0SUmPAa_3Y46IJ-44" value="" style="ellipse;html=1;shape=endState;fillColor=#000000;strokeColor=#ff0000;" vertex="1" parent="1">
          <mxGeometry x="715" y="720" width="30" height="30" as="geometry" />
        </mxCell>
        <mxCell id="SvwV8v0SUmPAa_3Y46IJ-45" value="" style="shape=line;html=1;strokeWidth=6;strokeColor=#ff0000;" vertex="1" parent="1">
          <mxGeometry x="630" y="640" width="200" height="10" as="geometry" />
        </mxCell>
        <mxCell id="SvwV8v0SUmPAa_3Y46IJ-46" value="" style="edgeStyle=orthogonalEdgeStyle;html=1;verticalAlign=bottom;endArrow=open;endSize=8;strokeColor=#ff0000;rounded=0;" edge="1" source="SvwV8v0SUmPAa_3Y46IJ-45" parent="1">
          <mxGeometry relative="1" as="geometry">
            <mxPoint x="730" y="720" as="targetPoint" />
          </mxGeometry>
        </mxCell>
        <mxCell id="SvwV8v0SUmPAa_3Y46IJ-47" style="edgeStyle=orthogonalEdgeStyle;rounded=0;orthogonalLoop=1;jettySize=auto;html=1;exitX=0;exitY=1;exitDx=0;exitDy=0;entryX=0.5;entryY=0;entryDx=0;entryDy=0;" edge="1" parent="1" source="SvwV8v0SUmPAa_3Y46IJ-44" target="SvwV8v0SUmPAa_3Y46IJ-44">
          <mxGeometry relative="1" as="geometry" />
        </mxCell>
        <mxCell id="SvwV8v0SUmPAa_3Y46IJ-48" value="" style="endArrow=open;endFill=1;endSize=12;html=1;rounded=0;entryX=0.5;entryY=0;entryDx=0;entryDy=0;" edge="1" parent="1">
          <mxGeometry width="160" relative="1" as="geometry">
            <mxPoint x="729" y="590" as="sourcePoint" />
            <mxPoint x="729.29" y="640" as="targetPoint" />
          </mxGeometry>
        </mxCell>
        <mxCell id="SvwV8v0SUmPAa_3Y46IJ-49" value="c" style="html=1;whiteSpace=wrap;fillColor=none;" vertex="1" parent="1">
          <mxGeometry x="60" y="50" width="460" height="760" as="geometry" />
        </mxCell>
        <mxCell id="SvwV8v0SUmPAa_3Y46IJ-51" value="c" style="html=1;whiteSpace=wrap;fillColor=none;" vertex="1" parent="1">
          <mxGeometry x="520" y="50" width="460" height="760" as="geometry" />
        </mxCell>
        <mxCell id="SvwV8v0SUmPAa_3Y46IJ-52" value="" style="endArrow=none;html=1;rounded=0;exitX=0.006;exitY=0.053;exitDx=0;exitDy=0;exitPerimeter=0;entryX=1.003;entryY=0.053;entryDx=0;entryDy=0;entryPerimeter=0;" edge="1" parent="1" source="SvwV8v0SUmPAa_3Y46IJ-49" target="SvwV8v0SUmPAa_3Y46IJ-51">
          <mxGeometry width="50" height="50" relative="1" as="geometry">
            <mxPoint x="590" y="460" as="sourcePoint" />
            <mxPoint x="640" y="410" as="targetPoint" />
          </mxGeometry>
        </mxCell>
        <mxCell id="SvwV8v0SUmPAa_3Y46IJ-53" value="Client" style="text;html=1;align=center;verticalAlign=middle;resizable=0;points=[];autosize=1;strokeColor=none;fillColor=none;" vertex="1" parent="1">
          <mxGeometry x="245" y="60" width="50" height="30" as="geometry" />
        </mxCell>
        <mxCell id="SvwV8v0SUmPAa_3Y46IJ-54" value="Subsystem" style="text;html=1;align=center;verticalAlign=middle;resizable=0;points=[];autosize=1;strokeColor=none;fillColor=none;" vertex="1" parent="1">
          <mxGeometry x="700" y="60" width="80" height="30" as="geometry" />
        </mxCell>
      </root>
    </mxGraphModel>
  </diagram>
</mxfile>
